<svg xmlns="http://www.w3.org/2000/svg" width="1000" height="220" viewBox="0 0 1000 220" role="img" aria-labelledby="title desc">
  <title id="title">Azizul Hakim Omor</title>
  <desc id="desc">Compact serif AHO monogram with Azizul Hakim Omor wordmark.</desc>
  <rect width="1000" height="220" rx="20" fill="#f8faf9"/>
  <g transform="translate(18 7)">
    <path d="M42 68a92 92 0 0 0-18 56c0 33 17 63 45 80" fill="none" stroke="#20c8c4" stroke-width="6" stroke-linecap="round"/>
    <path d="M82 31a92 92 0 0 1 88 64" fill="none" stroke="#20c8c4" stroke-width="6" stroke-linecap="round"/>
    <path d="M24 147a92 92 0 0 0 76 63" fill="none" stroke="#20c8c4" stroke-width="6" stroke-linecap="round"/>
    <text x="60" y="88" fill="#061523" font-family="Georgia,'Times New Roman',serif" font-size="92" font-weight="500">A</text>
    <text x="55" y="169" fill="#061523" font-family="Georgia,'Times New Roman',serif" font-size="118" font-weight="500">H</text>
    <text x="134" y="181" fill="#061523" font-family="Georgia,'Times New Roman',serif" font-size="96" font-weight="500">O</text>
    <circle cx="102" cy="116" r="5" fill="#ff7f5c"/>
    <line x1="238" y1="35" x2="238" y2="184" stroke="#b9c6cb" stroke-width="1.5"/>
  </g>
  <text x="295" y="104" fill="#061523" font-family="Georgia,'Times New Roman',serif" font-size="50" font-weight="500">Azizul Hakim Omor</text>
  <g font-family="Arial,sans-serif" font-size="15" letter-spacing="7" font-weight="500">
    <text x="298" y="148" fill="#20c8c4">AI</text>
    <circle cx="365" cy="143" r="4" fill="#ff7f5c"/>
    <text x="385" y="148" fill="#20c8c4">SOFTWARE</text>
    <circle cx="575" cy="143" r="4" fill="#ff7f5c"/>
    <text x="596" y="148" fill="#20c8c4">SYSTEMS</text>
  </g>
</svg>